<svg width="649" height="649" viewBox="0 0 649 649" fill="none" xmlns="http://www.w3.org/2000/svg">
<path d="M324.5 351.542C339.435 351.542 351.542 339.435 351.542 324.5C351.542 309.565 339.435 297.458 324.5 297.458C309.565 297.458 297.458 309.565 297.458 324.5C297.458 339.435 309.565 351.542 324.5 351.542Z" fill="white" fill-opacity="0.1"/>
<path d="M432.667 351.542C447.601 351.542 459.708 339.435 459.708 324.5C459.708 309.565 447.601 297.458 432.667 297.458C417.732 297.458 405.625 309.565 405.625 324.5C405.625 339.435 417.732 351.542 432.667 351.542Z" fill="white" fill-opacity="0.1"/>
<path d="M216.333 351.542C231.268 351.542 243.375 339.435 243.375 324.5C243.375 309.565 231.268 297.458 216.333 297.458C201.399 297.458 189.292 309.565 189.292 324.5C189.292 339.435 201.399 351.542 216.333 351.542Z" fill="white" fill-opacity="0.1"/>
<path d="M515.685 133.315C471.315 88.6561 412.754 60.8765 350.098 54.7659C287.442 48.6553 224.618 64.5965 172.455 99.8414C120.293 135.086 82.0616 187.426 64.3528 247.837C46.644 308.248 50.5673 372.945 75.4463 430.774C78.0393 436.149 78.8901 442.199 77.88 448.08L54.0834 562.467C53.1665 566.852 53.3538 571.397 54.6282 575.692C55.9026 579.987 58.2243 583.899 61.3846 587.075C63.9753 589.646 67.0599 591.667 70.4526 593.015C73.8452 594.363 77.4756 595.01 81.125 594.917H86.5333L202.272 571.661C208.154 570.954 214.119 571.792 219.578 574.095C277.407 598.974 342.104 602.897 402.515 585.188C462.926 567.479 515.266 529.248 550.511 477.086C585.755 424.923 601.697 362.099 595.586 299.443C589.476 236.787 561.696 178.226 517.037 133.856L515.685 133.315ZM538.129 359.384C532.842 391.671 520.301 422.339 501.448 449.078C482.596 475.818 457.925 497.934 429.29 513.761C400.656 529.588 368.805 538.714 336.134 540.452C303.463 542.191 270.823 536.496 240.671 523.797C229.977 519.248 218.489 516.859 206.869 516.766C201.792 516.802 196.728 517.254 191.725 518.118L115.468 533.532L130.882 457.275C133.952 440.76 131.973 423.703 125.203 408.329C112.504 378.177 106.809 345.537 108.548 312.866C110.286 280.195 119.412 248.344 135.239 219.709C151.066 191.075 173.182 166.404 199.922 147.551C226.661 128.699 257.329 116.158 289.616 110.871C323.507 105.309 358.235 107.896 390.927 118.417C423.62 128.939 453.338 147.093 477.622 171.378C501.907 195.662 520.061 225.38 530.583 258.073C541.104 290.765 543.691 325.493 538.129 359.384Z" fill="white" fill-opacity="0.1"/>
</svg>
