<svg width="223" height="66" viewBox="0 0 223 66" fill="none" xmlns="http://www.w3.org/2000/svg">
<rect width="223" height="66" fill="#E9E9E9"/>
<path d="M80.47 30.2H81.87V38.782H87.176V40H80.47V30.2ZM93.0288 40.112C92.0394 40.112 91.1481 39.8973 90.3548 39.468C89.5614 39.0293 88.9361 38.4273 88.4788 37.662C88.0308 36.8967 87.8068 36.0427 87.8068 35.1C87.8068 34.1573 88.0308 33.3033 88.4788 32.538C88.9361 31.7727 89.5614 31.1753 90.3548 30.746C91.1481 30.3073 92.0394 30.088 93.0288 30.088C94.0088 30.088 94.8954 30.3073 95.6888 30.746C96.4821 31.1753 97.1028 31.7727 97.5508 32.538C97.9988 33.294 98.2228 34.148 98.2228 35.1C98.2228 36.052 97.9988 36.9107 97.5508 37.676C97.1028 38.432 96.4821 39.0293 95.6888 39.468C94.8954 39.8973 94.0088 40.112 93.0288 40.112ZM93.0288 38.866C93.7474 38.866 94.3914 38.7027 94.9608 38.376C95.5394 38.0493 95.9921 37.6013 96.3188 37.032C96.6548 36.4533 96.8228 35.8093 96.8228 35.1C96.8228 34.3907 96.6548 33.7513 96.3188 33.182C95.9921 32.6033 95.5394 32.1507 94.9608 31.824C94.3914 31.4973 93.7474 31.334 93.0288 31.334C92.3101 31.334 91.6568 31.4973 91.0688 31.824C90.4901 32.1507 90.0328 32.6033 89.6968 33.182C89.3701 33.7513 89.2068 34.3907 89.2068 35.1C89.2068 35.8093 89.3701 36.4533 89.6968 37.032C90.0328 37.6013 90.4901 38.0493 91.0688 38.376C91.6568 38.7027 92.3101 38.866 93.0288 38.866ZM107.153 35.044H108.497V38.866C108.011 39.2673 107.447 39.5753 106.803 39.79C106.159 40.0047 105.487 40.112 104.787 40.112C103.797 40.112 102.906 39.8973 102.113 39.468C101.319 39.0293 100.694 38.432 100.237 37.676C99.7886 36.9107 99.5646 36.052 99.5646 35.1C99.5646 34.148 99.7886 33.2893 100.237 32.524C100.694 31.7587 101.319 31.1613 102.113 30.732C102.915 30.3027 103.816 30.088 104.815 30.088C105.599 30.088 106.308 30.2187 106.943 30.48C107.587 30.732 108.133 31.1053 108.581 31.6L107.713 32.468C106.929 31.712 105.981 31.334 104.871 31.334C104.124 31.334 103.452 31.4973 102.855 31.824C102.267 32.1413 101.805 32.5893 101.469 33.168C101.133 33.7373 100.965 34.3813 100.965 35.1C100.965 35.8093 101.133 36.4533 101.469 37.032C101.805 37.6013 102.267 38.0493 102.855 38.376C103.452 38.7027 104.119 38.866 104.857 38.866C105.734 38.866 106.499 38.656 107.153 38.236V35.044ZM115.601 40.112C114.612 40.112 113.72 39.8973 112.927 39.468C112.134 39.0293 111.508 38.4273 111.051 37.662C110.603 36.8967 110.379 36.0427 110.379 35.1C110.379 34.1573 110.603 33.3033 111.051 32.538C111.508 31.7727 112.134 31.1753 112.927 30.746C113.72 30.3073 114.612 30.088 115.601 30.088C116.581 30.088 117.468 30.3073 118.261 30.746C119.054 31.1753 119.675 31.7727 120.123 32.538C120.571 33.294 120.795 34.148 120.795 35.1C120.795 36.052 120.571 36.9107 120.123 37.676C119.675 38.432 119.054 39.0293 118.261 39.468C117.468 39.8973 116.581 40.112 115.601 40.112ZM115.601 38.866C116.32 38.866 116.964 38.7027 117.533 38.376C118.112 38.0493 118.564 37.6013 118.891 37.032C119.227 36.4533 119.395 35.8093 119.395 35.1C119.395 34.3907 119.227 33.7513 118.891 33.182C118.564 32.6033 118.112 32.1507 117.533 31.824C116.964 31.4973 116.32 31.334 115.601 31.334C114.882 31.334 114.229 31.4973 113.641 31.824C113.062 32.1507 112.605 32.6033 112.269 33.182C111.942 33.7513 111.779 34.3907 111.779 35.1C111.779 35.8093 111.942 36.4533 112.269 37.032C112.605 37.6013 113.062 38.0493 113.641 38.376C114.229 38.7027 114.882 38.866 115.601 38.866Z" fill="black"/>
</svg>
